<?xml version="1.0" encoding="iso-8859-1"?>
<!-- Generator: Adobe Illustrator 19.0.0, SVG Export Plug-In . SVG Version: 6.00 Build 0)  -->
<svg version="1.1" id="Capa_1" xmlns="http://www.w3.org/2000/svg" xmlns:xlink="http://www.w3.org/1999/xlink" x="0px" y="0px"
	 viewBox="0 0 512 512" style="enable-background:new 0 0 512 512;" xml:space="preserve">
<path style="fill:#303C42;" d="M426.667,0H85.333C61.802,0,42.667,19.135,42.667,42.667v426.667
	c0,23.531,19.135,42.667,42.667,42.667h341.333c23.531,0,42.667-19.135,42.667-42.667V42.667C469.333,19.135,450.198,0,426.667,0z"
	/>
<g>
	<path style="fill:#B0BEC5;" d="M85.333,21.333h341.333c11.76,0,21.333,9.573,21.333,21.333V128H64V42.667
		C64,30.906,73.573,21.333,85.333,21.333z"/>
	<path style="fill:#B0BEC5;" d="M426.667,490.667H85.333c-11.76,0-21.333-9.573-21.333-21.333v-320h384v320
		C448,481.094,438.427,490.667,426.667,490.667z"/>
</g>
<circle style="fill:#303C42;" cx="256" cy="320" r="149.333"/>
<circle style="fill:#BDDDF4;" cx="256" cy="320" r="128"/>
<circle style="opacity:0.1;fill:#010101;enable-background:new    ;" cx="256" cy="320" r="128"/>
<path style="fill:#303C42;" d="M117.333,106.667h64c29.406,0,53.333-23.927,53.333-53.333c0-5.896-4.771-10.667-10.667-10.667
	H117.333c-5.896,0-10.667,4.771-10.667,10.667V96C106.667,101.896,111.438,106.667,117.333,106.667z"/>
<path style="fill:#78909C;" d="M128,64h83.51c-4.406,12.417-16.271,21.333-30.177,21.333H128V64z"/>
<g>
	<path style="fill:#303C42;" d="M309.333,64h21.333c5.896,0,10.667-4.771,10.667-10.667s-4.771-10.667-10.667-10.667h-21.333
		c-5.896,0-10.667,4.771-10.667,10.667S303.438,64,309.333,64z"/>
	<path style="fill:#303C42;" d="M373.333,64h21.333c5.896,0,10.667-4.771,10.667-10.667s-4.771-10.667-10.667-10.667h-21.333
		c-5.896,0-10.667,4.771-10.667,10.667S367.438,64,373.333,64z"/>
	<path style="fill:#303C42;" d="M266.667,106.667H288c5.896,0,10.667-4.771,10.667-10.667c0-5.896-4.771-10.667-10.667-10.667
		h-21.333C260.771,85.333,256,90.104,256,96C256,101.896,260.771,106.667,266.667,106.667z"/>
	<path style="fill:#303C42;" d="M320,96c0,5.896,4.771,10.667,10.667,10.667H352c5.896,0,10.667-4.771,10.667-10.667
		c0-5.896-4.771-10.667-10.667-10.667h-21.333C324.771,85.333,320,90.104,320,96z"/>
	<path style="fill:#303C42;" d="M256,213.333c-58.813,0-106.667,47.854-106.667,106.667S197.188,426.667,256,426.667
		c39.24,0,75.219-21.813,93.875-56.917c1.781-3.354,1.646-7.406-0.354-10.625c-3.958-6.396-8.188-20.031-8.188-39.125
		s4.229-32.729,8.188-39.125c2-3.219,2.135-7.271,0.354-10.625C331.219,235.146,295.24,213.333,256,213.333z"/>
</g>
<path style="fill:#BDDDF4;" d="M328.292,364.542c-15.563,25.292-42.781,40.792-72.292,40.792c-47.052,0-85.333-38.281-85.333-85.333
	s38.281-85.333,85.333-85.333c29.51,0,56.729,15.5,72.292,40.792C322.979,286.99,320,302.792,320,320
	C320,337.208,322.979,353.01,328.292,364.542z"/>
<linearGradient id="SVGID_1_" gradientUnits="userSpaceOnUse" x1="-38.3293" y1="633.1723" x2="-31.1214" y2="629.8104" gradientTransform="matrix(21.3333 0 0 -21.3333 996.3334 13791.667)">
	<stop  offset="0" style="stop-color:#FFFFFF;stop-opacity:0.2"/>
	<stop  offset="1" style="stop-color:#FFFFFF;stop-opacity:0"/>
</linearGradient>
<path style="fill:url(#SVGID_1_);" d="M328.292,364.542c-15.563,25.292-42.781,40.792-72.292,40.792
	c-47.052,0-85.333-38.281-85.333-85.333s38.281-85.333,85.333-85.333c29.51,0,56.729,15.5,72.292,40.792
	C322.979,286.99,320,302.792,320,320C320,337.208,322.979,353.01,328.292,364.542z"/>
<path style="opacity:0.1;fill:#010101;enable-background:new    ;" d="M192,352c0-47.052,38.281-85.333,85.333-85.333
	c17.652,0,34.423,5.643,48.431,15.513c0.797-2.316,1.578-4.661,2.527-6.721c-15.563-25.292-42.781-40.792-72.292-40.792
	c-47.052,0-85.333,38.281-85.333,85.333c0,24.473,10.496,46.414,27.056,61.99C194.181,372.625,192,362.59,192,352z"/>
<linearGradient id="SVGID_2_" gradientUnits="userSpaceOnUse" x1="-34.6494" y1="631.4305" x2="-26.4965" y2="623.2775" gradientTransform="matrix(21.3333 0 0 -21.3333 996.3334 13791.667)">
	<stop  offset="0" style="stop-color:#010101;stop-opacity:0.1"/>
	<stop  offset="1" style="stop-color:#010101;stop-opacity:0"/>
</linearGradient>
<path style="fill:url(#SVGID_2_);" d="M362.667,215.638l-0.023,0.023c26.366,26.943,42.69,63.753,42.69,104.339
	c0,82.344-66.99,149.333-149.333,149.333c-40.589,0-77.4-16.326-104.344-42.694l-0.027,0.027l64,64h211.038
	c11.76,0,21.333-9.573,21.333-21.333V300.971L362.667,215.638z"/>
<linearGradient id="SVGID_3_" gradientUnits="userSpaceOnUse" x1="-46.9171" y1="640.1803" x2="-22.4892" y2="628.7885" gradientTransform="matrix(21.3333 0 0 -21.3333 996.3334 13791.667)">
	<stop  offset="0" style="stop-color:#FFFFFF;stop-opacity:0.2"/>
	<stop  offset="1" style="stop-color:#FFFFFF;stop-opacity:0"/>
</linearGradient>
<path style="fill:url(#SVGID_3_);" d="M426.667,0H85.333C61.802,0,42.667,19.135,42.667,42.667v426.667
	c0,23.531,19.135,42.667,42.667,42.667h341.333c23.531,0,42.667-19.135,42.667-42.667V42.667C469.333,19.135,450.198,0,426.667,0z"
	/>
<g>
</g>
<g>
</g>
<g>
</g>
<g>
</g>
<g>
</g>
<g>
</g>
<g>
</g>
<g>
</g>
<g>
</g>
<g>
</g>
<g>
</g>
<g>
</g>
<g>
</g>
<g>
</g>
<g>
</g>
</svg>
